<?xml version="1.0" encoding="UTF-8"?>
<svg version="1.1" xmlns="http://www.w3.org/2000/svg" width="512" height="512">
<path d="M0 0 C4.3653559 0.72755932 7.06869652 1.26302095 10.93310547 2.93579102 C12.34642654 3.54167809 12.34642654 3.54167809 13.78829956 4.1598053 C14.80433258 4.60335861 15.8203656 5.04691193 16.8671875 5.50390625 C18.48924606 6.20240944 18.48924606 6.20240944 20.14407349 6.9150238 C23.10367241 8.19081694 26.06067978 9.47240598 29.01672363 10.75640869 C32.15870833 12.11935266 35.30406821 13.47445965 38.44921875 14.83007812 C43.03633226 16.80787277 47.62253723 18.78774529 52.20756912 20.77036095 C63.64356921 25.71503189 75.09628871 30.62050428 86.550354 35.52316284 C92.36767792 38.01363291 98.18377162 40.50697278 104 43 C106.33332755 44.0000135 108.66666088 45.00001351 111 46 C181.00000002 76.00000001 181.00000002 76.00000001 184.49971008 77.49987793 C186.8340077 78.50028974 189.16830743 79.50069664 191.50260925 80.50109863 C197.32120626 82.99475771 203.13976714 85.48850103 208.95825195 87.98242188 C220.24788626 92.82128187 231.53800133 97.6590141 242.82932663 102.493927 C264.11355213 111.60802269 285.3974102 120.72212037 306.64202881 129.92822266 C327.62070518 139.01714327 348.64443463 148.00129965 369.66157913 157.00079918 C377.95865481 160.55364576 386.25488837 164.10845506 394.55078125 167.6640625 C395.18755861 167.93698372 395.82433598 168.20990494 396.48040962 168.4910965 C399.63672016 169.84389379 402.7930185 171.19671955 405.9493103 172.54956055 C411.74999619 175.03579583 417.55078179 177.52179846 423.3515625 180.0078125 C425.40006562 180.88574099 427.44856825 181.76367062 429.49707031 182.64160156 C430.43522583 183.04366821 431.37338135 183.44573486 432.33996582 183.85998535 C437.89331055 186.23999023 443.44665527 188.61999512 449 191 C449 191.66 449 192.32 449 193 C447.58268229 193.60742188 446.16536458 194.21484375 444.74804688 194.82226562 C443.80539474 195.22626083 442.86274261 195.63025604 441.89152527 196.04649353 C439.7329296 196.97160299 437.57432958 197.8967023 435.41572571 198.8217926 C429.87148683 201.19784635 424.32728477 203.57398582 418.78324223 205.95049763 C415.51567529 207.35116951 412.24807927 208.75177353 408.98046875 210.15234375 C408.31711706 210.43667204 407.65376537 210.72100033 406.97031212 211.01394463 C397.5402818 215.05572973 388.10858308 219.09359295 378.67578125 223.12890625 C355.88322439 232.88181134 333.1087935 242.67331877 310.375 252.5625 C290.4343036 261.23630221 270.44917834 269.80079228 250.43652344 278.30712891 C248.17772508 279.26723073 245.91893604 280.22735448 243.66015625 281.1875 C241.97749161 281.90273331 241.97749161 281.90273331 240.26083374 282.63241577 C227.53832222 288.04277772 214.83100093 293.48850105 202.125 298.9375 C200.38759048 299.68252274 200.38759048 299.68252274 198.61508179 300.44259644 C192.75397476 302.95599791 186.89305048 305.46982515 181.03222656 307.98388672 C170.52190442 312.49213986 160.00987986 316.99642065 149.49798584 321.50100708 C143.6652544 324.00050923 137.83263275 326.50026756 132 329 C129.66666719 330.00000123 127.33333386 331.00000123 125 332 C123.845 332.495 122.69 332.99 121.5 333.5 C111.00000001 338 111.00000001 338 107.50076294 339.49964905 C105.16486333 340.50076488 102.8289869 341.50193482 100.49313354 342.50315857 C94.69925213 344.98652803 88.90498521 347.46898951 83.10986328 349.94946289 C72.13859828 354.64663241 61.17170833 359.35345167 50.21746826 364.09017944 C45.65717504 366.06201278 41.0950238 368.02953061 36.53245163 369.99608421 C33.4131033 371.34098448 30.2948924 372.68839922 27.17919922 374.04174805 C23.74441455 375.53252216 20.3062202 377.01515135 16.8671875 378.49609375 C15.85115448 378.93964706 14.83512146 379.38320038 13.78829956 379.8401947 C12.37497849 380.44608177 12.37497849 380.44608177 10.93310547 381.06420898 C10.12050262 381.41595688 9.30789978 381.76770477 8.47067261 382.13011169 C6 383 6 383 0 384 C0 334.5 0 285 0 234 C85.57481352 222.27742281 85.57481352 222.27742281 123.65498734 217.20162582 C128.57398182 216.54584721 133.49294757 215.88985417 138.41187668 215.23358536 C150.17995515 213.6636458 161.94817698 212.09478745 173.71661913 210.52757633 C186.46902565 208.82931129 199.22098812 207.12777593 211.97248264 205.42267726 C223.1897448 203.92279533 234.40746929 202.42641936 245.62563646 200.93331826 C251.86422428 200.10290254 258.10260826 199.27102329 264.34050369 198.43542099 C270.14385043 197.65811626 275.94775593 196.88513048 281.75212669 196.11551094 C283.87481269 195.83329639 285.99729137 195.54951738 288.11954308 195.26405525 C291.01377216 194.87499779 293.90869609 194.49159117 296.80386353 194.10958862 C297.64026985 193.99579042 298.47667617 193.88199222 299.33842814 193.76474559 C303.93813477 193.16473983 308.36111157 192.89002494 313 193 C313 192.34 313 191.68 313 191 C312.2468152 190.97047997 311.49363039 190.94095993 310.7176218 190.91054535 C297.61285827 190.22258394 284.65674842 188.3557929 271.66041696 186.60141683 C268.10068606 186.12200863 264.54018583 185.64837655 260.9797821 185.17399597 C254.02694299 184.24671631 247.07480871 183.31425321 240.12289917 182.3800329 C232.01976484 181.29133749 223.91590247 180.20810907 215.81200064 179.12514406 C201.35485123 177.19299926 186.89831265 175.25632284 172.44213867 173.31689453 C158.42330915 171.43614732 144.40413093 169.55803038 130.38452148 167.68310547 C129.08721733 167.50960842 129.08721733 167.50960842 127.76370501 167.33260638 C124.28698704 166.86764864 120.81026808 166.40269837 117.33354744 165.93776062 C102.33938319 163.9325419 87.34550677 161.92517247 72.35166946 159.91751075 C69.927013 159.59286889 67.50234986 159.268277 65.07768512 158.94369698 C56.59389446 157.80795839 48.11019204 156.67156673 39.62673127 155.53336632 C36.12020936 155.06290891 32.61364997 154.59273629 29.10697937 154.12338829 C25.30652257 153.61469825 21.50627031 153.10449142 17.70603943 152.59411621 C16.59759137 152.44596419 15.48914331 152.29781217 14.34710592 152.14517069 C13.3272586 152.00794391 12.30741129 151.87071713 11.25665951 151.72933197 C10.38004223 151.61178102 9.50342495 151.49423007 8.60024351 151.37311697 C5.7266205 150.96077193 2.86355739 150.47725957 0 150 C0 100.5 0 51 0 0 Z " fill="#000000" transform="translate(42,64)"/>
</svg>
