<?xml version="1.0" encoding="UTF-8"?>
<svg version="1.1" xmlns="http://www.w3.org/2000/svg" width="48" height="48">
<path d="M0 0 C0.83265381 0.00523682 1.66530762 0.01047363 2.52319336 0.01586914 C3.42231445 0.0190918 4.32143555 0.02231445 5.24780273 0.02563477 C6.66609375 0.03820313 6.66609375 0.03820313 8.11303711 0.05102539 C9.06243164 0.05553711 10.01182617 0.06004883 10.98999023 0.06469727 C13.34356776 0.07652429 15.69702188 0.09300514 18.05053711 0.11352539 C18.17557617 0.75290039 18.30061523 1.39227539 18.42944336 2.05102539 C18.6344043 2.73165039 18.83936523 3.41227539 19.05053711 4.11352539 C20.37521457 4.79722989 21.70917344 5.46316725 23.05053711 6.11352539 C23.38053711 6.79415039 23.71053711 7.47477539 24.05053711 8.17602539 C24.38053711 8.81540039 24.71053711 9.45477539 25.05053711 10.11352539 C27.07577181 10.76059268 27.07577181 10.76059268 29.05053711 11.11352539 C29.07941857 14.42600726 29.0972951 17.73845706 29.11303711 21.05102539 C29.12141602 21.99655273 29.12979492 22.94208008 29.13842773 23.91625977 C29.14165039 24.81538086 29.14487305 25.71450195 29.14819336 26.64086914 C29.15343018 27.47352295 29.15866699 28.30617676 29.1640625 29.1640625 C29.05053711 31.11352539 29.05053711 31.11352539 28.05053711 32.11352539 C25.84403055 32.2136494 23.63431324 32.24433719 21.42553711 32.24633789 C20.76344238 32.24729462 20.10134766 32.24825134 19.41918945 32.24923706 C18.0170075 32.24991865 16.61482241 32.24806581 15.21264648 32.24389648 C13.05957998 32.23854785 10.90672209 32.24384209 8.75366211 32.25024414 C7.39428665 32.24958336 6.03491131 32.24830218 4.67553711 32.24633789 C3.43030273 32.24520996 2.18506836 32.24408203 0.90209961 32.24291992 C-1.94946289 32.11352539 -1.94946289 32.11352539 -2.94946289 31.11352539 C-3.0495869 28.90701883 -3.08027469 26.69730153 -3.08227539 24.48852539 C-3.08323212 23.82643066 -3.08418884 23.16433594 -3.08517456 22.48217773 C-3.08585615 21.07999578 -3.08400331 19.67781069 -3.07983398 18.27563477 C-3.07448535 16.12256826 -3.07977959 13.96971037 -3.08618164 11.81665039 C-3.08552086 10.45727493 -3.08423968 9.0978996 -3.08227539 7.73852539 C-3.08114746 6.49329102 -3.08001953 5.24805664 -3.07885742 3.96508789 C-2.90661543 0.16926439 -2.90661543 0.16926439 0 0 Z M16.05053711 20.11352539 C15.39053711 20.93852539 14.73053711 21.76352539 14.05053711 22.61352539 C13.39053711 23.43852539 12.73053711 24.26352539 12.05053711 25.11352539 C11.39053711 25.11352539 10.73053711 25.11352539 10.05053711 25.11352539 C9.39053711 24.12352539 8.73053711 23.13352539 8.05053711 22.11352539 C6.03431381 22.82915805 6.03431381 22.82915805 4.05053711 24.11352539 C3.72053711 25.43352539 3.39053711 26.75352539 3.05053711 28.11352539 C9.65053711 28.11352539 16.25053711 28.11352539 23.05053711 28.11352539 C21.29439395 23.34726244 21.29439395 23.34726244 18.05053711 20.11352539 C17.39053711 20.11352539 16.73053711 20.11352539 16.05053711 20.11352539 Z " fill="#000000" transform="translate(8.949462890625,9.886474609375)"/>
<path d="M0 0 C1.32 0 2.64 0 4 0 C4 1.98 4 3.96 4 6 C5.98 6 7.96 6 10 6 C10 7.32 10 8.64 10 10 C8.02 10 6.04 10 4 10 C4 11.98 4 13.96 4 16 C2.68 16 1.36 16 0 16 C0 14.02 0 12.04 0 10 C-1.98 10 -3.96 10 -6 10 C-6 8.68 -6 7.36 -6 6 C-4.02 6 -2.04 6 0 6 C0 4.02 0 2.04 0 0 Z " fill="#000000" transform="translate(34,4)"/>
</svg>
