<svg width="1440" height="1024" viewBox="0 0 1440 1024" fill="none" xmlns="http://www.w3.org/2000/svg">
<g clip-path="url(#clip0_2016_182)">
<rect width="1440" height="1024" fill="#FCFFFC"/>
<g filter="url(#filter0_f_2016_182)">
<path fill-rule="evenodd" clip-rule="evenodd" d="M1420.63 286.113C1569.01 310.641 1677.15 434.913 1738.33 553.671C1791.16 656.206 1752.94 762.195 1718.21 863.744C1687.17 954.506 1645.99 1042.96 1553.61 1093.82C1456.6 1147.23 1335.55 1160.19 1215.27 1140.64C1081.54 1118.9 950.588 1072.15 861.129 981.283C758.25 876.789 657.167 740.359 702.292 619.599C746.27 501.908 935.805 500.864 1062.65 441.975C1184.8 385.269 1276.35 262.263 1420.63 286.113Z" fill="#2BA84A"/>
</g>
<g filter="url(#filter1_f_2016_182)">
<path fill-rule="evenodd" clip-rule="evenodd" d="M1093.31 -351.702C1232.5 -374.872 1376.8 -388.531 1501.35 -310.376C1634.82 -226.63 1747.76 -89.5066 1772.4 74.4151C1796.23 232.906 1710.84 375.289 1623.16 499.976C1542.9 614.101 1440.48 712.321 1308.46 734.146C1179.68 755.437 1060.09 681.993 943.569 612.326C808.173 531.376 643.213 466.74 595.165 307.68C544.515 140.006 604.713 -45.1864 704.894 -177.795C796.911 -299.597 948.441 -327.587 1093.31 -351.702Z" fill="#2C4310"/>
</g>
</g>
<defs>
<filter id="filter0_f_2016_182" x="211.244" y="-196.918" width="2033.16" height="1826.17" filterUnits="userSpaceOnUse" color-interpolation-filters="sRGB">
<feFlood flood-opacity="0" result="BackgroundImageFix"/>
<feBlend mode="normal" in="SourceGraphic" in2="BackgroundImageFix" result="shape"/>
<feGaussianBlur stdDeviation="240" result="effect1_foregroundBlur_2016_182"/>
</filter>
<filter id="filter1_f_2016_182" x="96.853" y="-849.773" width="2159.6" height="2067.66" filterUnits="userSpaceOnUse" color-interpolation-filters="sRGB">
<feFlood flood-opacity="0" result="BackgroundImageFix"/>
<feBlend mode="normal" in="SourceGraphic" in2="BackgroundImageFix" result="shape"/>
<feGaussianBlur stdDeviation="240" result="effect1_foregroundBlur_2016_182"/>
</filter>
<clipPath id="clip0_2016_182">
<rect width="1440" height="1024" fill="white"/>
</clipPath>
</defs>
</svg>
