<svg width="489" height="489" viewBox="0 0 489 489" fill="none" xmlns="http://www.w3.org/2000/svg">
<path d="M274.054 143.44C245.443 162.95 287.961 211.014 281.945 235.586C275.933 260.159 251.41 274.772 252.97 303.68C254.535 332.584 295.848 333.662 301.352 309.304C306.852 284.942 305.01 262.269 313.203 248.556C321.399 234.839 340.773 217.74 341.285 189.819C341.793 161.893 300.485 125.416 274.054 143.44Z" fill="white"/>
<path d="M280.427 132.842C287.834 133.156 294.218 124.481 294.685 113.473C295.151 102.46 289.523 93.2768 282.111 92.963C274.704 92.6492 268.32 101.325 267.853 112.337C267.391 123.349 273.019 132.529 280.427 132.842Z" fill="white"/>
<path d="M312.575 138.562C318.546 139.107 324.046 132.356 324.855 123.478C325.664 114.605 321.481 106.966 315.511 106.421C309.54 105.876 304.044 112.631 303.231 121.505C302.421 130.378 306.604 138.017 312.575 138.562Z" fill="white"/>
<path d="M336.237 150.398C341.089 151.051 345.813 145.732 346.783 138.523C347.758 131.305 344.611 124.93 339.759 124.277C334.904 123.621 330.184 128.939 329.209 136.153C328.239 143.366 331.385 149.742 336.237 150.398Z" fill="white"/>
<path d="M355.283 160.64C356.48 155.202 354.482 150.139 350.823 149.338C347.165 148.533 343.23 152.287 342.036 157.725C340.839 163.163 342.833 168.225 346.492 169.026C350.15 169.831 354.085 166.078 355.283 160.64Z" fill="white"/>
<path d="M358.16 173.179C355.373 171.878 351.549 174.182 349.617 178.324C347.684 182.465 348.378 186.875 351.161 188.176C353.948 189.477 357.776 187.173 359.704 183.031C361.637 178.89 360.947 174.48 358.16 173.179Z" fill="white"/>
<path d="M237.039 93.1867C211.442 73.9902 168.536 108.572 167.793 136.493C167.046 164.411 185.631 182.364 193.204 196.432C200.772 210.504 197.911 233.07 202.313 257.655C206.714 282.236 248.035 283.017 250.896 254.212C253.754 225.402 229.916 209.703 225.011 184.883C220.109 160.067 264.746 113.961 237.039 93.1867Z" fill="white"/>
<path d="M231.149 82.3125C238.565 82.3332 244.602 73.4142 244.631 62.3935C244.659 51.3686 238.672 42.4207 231.256 42.4001C223.84 42.3794 217.808 51.2984 217.775 62.3191C217.746 73.344 223.733 82.2919 231.149 82.3125Z" fill="white"/>
<path d="M198.775 86.5814C204.767 86.3047 209.288 78.864 208.875 69.9615C208.467 61.059 203.276 54.0642 197.289 54.3409C191.297 54.6175 186.776 62.0583 187.185 70.9607C187.598 79.8632 192.784 86.858 198.775 86.5814Z" fill="white"/>
<path d="M174.605 97.3419C179.481 96.9083 182.913 90.6774 182.265 83.4266C181.62 76.1758 177.14 70.651 172.264 71.0887C167.383 71.5222 163.956 77.7531 164.6 85.004C165.248 92.2506 169.728 97.7754 174.605 97.3419Z" fill="white"/>
<path d="M168.484 104.401C167.534 98.9136 163.773 94.9867 160.081 95.6268C156.39 96.2668 154.168 101.23 155.118 106.718C156.068 112.201 159.834 116.132 163.521 115.492C167.212 114.852 169.434 109.889 168.484 104.401Z" fill="white"/>
<path d="M151.68 119.114C148.84 120.287 147.948 124.664 149.694 128.888C151.437 133.112 155.153 135.585 157.994 134.408C160.839 133.236 161.727 128.863 159.984 124.639C158.242 120.415 154.521 117.941 151.68 119.114Z" fill="white"/>
<path d="M154.89 246.985C143.676 237.564 130.31 229.574 114.633 225.463C129.739 230.554 141.881 239.273 151.947 249.298C160.699 258.034 167.881 267.828 174.935 277.764C156.557 283.901 132.604 287.81 116.63 283.12C102.163 278.846 92.7925 267.835 88.337 255.492C83.9542 243.162 82.4472 229.11 82.3924 215.639C107.167 211.07 132.239 215.018 150.171 226.34C166.336 236.605 176.461 252.773 178.235 270.78C171.052 262.48 163.559 254.307 154.89 246.985Z" fill="white"/>
<path d="M349.083 269.001C360.297 259.58 373.663 251.591 389.34 247.479C374.234 252.57 362.092 261.289 352.026 271.314C343.274 280.051 336.092 289.844 329.038 299.78C347.416 305.917 371.369 309.826 387.343 305.136C401.81 300.862 411.18 289.851 415.636 277.508C420.019 265.178 421.526 251.126 421.58 237.656C396.806 233.086 371.733 237.035 353.802 248.356C337.637 258.621 327.512 274.789 325.738 292.796C332.921 284.497 340.414 276.323 349.083 269.001Z" fill="white"/>
<path d="M125.39 318.595C114.552 325.25 101.238 327.85 88.7386 325.616C74.8561 323.101 62.1932 314.778 54.3999 303.047C61.9904 297.569 70.513 292.415 79.2808 289.168C88.0486 285.881 98.1541 285.109 106.598 289.128C115.892 293.55 123.725 304.673 127.947 314.454C119.424 315.713 110.899 316.848 102.334 316.93C92.5127 317.051 82.5282 315.753 73.3549 311.858C82.2437 316.403 92.3099 318.431 102.294 319.039C110.006 319.53 117.717 319.163 125.39 318.595Z" fill="white"/>
<path d="M357.7 332.698C364.02 343.734 374.458 352.399 386.498 356.431C399.887 360.879 414.99 359.646 427.453 353.088C423.418 344.641 418.409 336.032 412.272 328.979C406.153 321.891 397.655 316.369 388.317 315.848C378.041 315.272 365.835 321.278 357.44 327.838C364.316 333.029 371.254 338.113 378.731 342.29C387.292 347.105 396.677 350.752 406.594 351.732C396.614 351.46 386.808 348.413 377.754 344.161C370.752 340.894 364.16 336.875 357.7 332.698Z" fill="white"/>
<circle cx="244.4" cy="244.4" r="238" stroke="#FCFFFC" stroke-width="12.8"/>
<path d="M186.13 379.361C182.156 379.361 178.776 378.556 175.993 376.947C173.209 375.338 171.085 373.166 169.62 370.43C168.172 367.678 167.448 364.605 167.448 361.21C167.448 358.699 167.874 356.35 168.727 354.162C169.58 351.957 170.811 350.026 172.42 348.369C174.046 346.711 176.009 345.416 178.31 344.482C180.611 343.533 183.218 343.058 186.13 343.058C187.482 343.058 188.858 343.187 190.258 343.445C191.658 343.702 193.114 344.12 194.627 344.7L192.889 349.141C191.473 348.723 190.266 348.433 189.268 348.272C188.287 348.111 187.241 348.031 186.13 348.031C184.215 348.031 182.542 348.401 181.11 349.141C179.694 349.881 178.519 350.879 177.586 352.134C176.652 353.373 175.952 354.781 175.486 356.358C175.019 357.919 174.786 359.536 174.786 361.21C174.786 362.867 175.019 364.484 175.486 366.061C175.952 367.638 176.652 369.054 177.586 370.309C178.519 371.548 179.694 372.538 181.11 373.278C182.542 374.019 184.215 374.389 186.13 374.389C187.241 374.389 188.343 374.252 189.437 373.978C190.531 373.705 191.666 373.294 192.841 372.747L194.627 377.14C193.211 377.88 191.778 378.436 190.33 378.806C188.882 379.176 187.482 379.361 186.13 379.361ZM203.585 379.409C202.04 379.409 200.704 379.071 199.578 378.395C198.468 377.703 197.607 376.802 196.995 375.692C196.4 374.582 196.102 373.391 196.102 372.12C196.102 370.784 196.496 369.521 197.285 368.33C198.073 367.139 199.425 366.134 201.34 365.313C203.271 364.476 205.934 363.929 209.329 363.672C209.217 364.428 209.032 365.128 208.774 365.772C208.517 366.399 208.163 366.922 207.712 367.341C207.278 367.759 206.722 368.032 206.047 368.161C205.242 368.29 204.582 368.515 204.067 368.837C203.552 369.159 203.174 369.553 202.933 370.02C202.692 370.47 202.571 370.961 202.571 371.492C202.571 372.329 202.869 373.029 203.464 373.592C204.059 374.155 204.775 374.437 205.612 374.437C206.529 374.437 207.455 374.123 208.388 373.496C209.337 372.852 210.23 372.039 211.067 371.058V363.768C211.067 362.095 210.601 360.759 209.667 359.761C208.75 358.764 207.447 358.265 205.757 358.265C204.968 358.265 204.116 358.345 203.198 358.506C202.281 358.667 201.251 358.957 200.109 359.375L198.468 355.127C199.9 354.467 201.372 354.001 202.885 353.727C204.413 353.437 205.741 353.293 206.867 353.293C210.295 353.293 212.934 354.194 214.784 355.996C216.651 357.798 217.584 360.389 217.584 363.768V372.699C217.584 373.584 217.641 374.533 217.753 375.547C217.866 376.561 218.067 377.639 218.357 378.782H213.384C212.95 378.54 212.588 378.202 212.298 377.768C212.025 377.317 211.791 376.851 211.598 376.368L211.453 375.402L210.874 376.223C209.426 377.543 208.155 378.403 207.06 378.806C205.982 379.208 204.824 379.409 203.585 379.409ZM223.522 378.782V359.906C223.522 359.005 223.465 358.048 223.353 357.034C223.24 356.02 223.039 354.95 222.749 353.824H227.866C228.14 354.033 228.43 354.475 228.735 355.151C229.041 355.827 229.25 356.575 229.363 357.396L229.459 358.555L229.942 357.396C230.602 356.109 231.447 355.111 232.477 354.403C233.523 353.695 234.56 353.341 235.59 353.341C236.105 353.341 236.612 353.389 237.111 353.486C237.61 353.582 238.149 353.727 238.728 353.92L237.956 359.375C237.312 359.182 236.773 359.053 236.339 358.989C235.904 358.925 235.494 358.892 235.108 358.892C234.013 358.892 233.072 359.255 232.284 359.979C231.495 360.687 230.892 361.66 230.473 362.899C230.055 364.138 229.846 365.554 229.846 367.147V378.782H223.522ZM253.337 379.506C251.583 379.506 249.862 379.297 248.172 378.878C246.498 378.476 244.68 377.768 242.717 376.754V342.189H249.427V374.051C250.183 374.244 250.859 374.373 251.455 374.437C252.066 374.501 252.694 374.533 253.337 374.533C255.22 374.533 256.7 373.681 257.779 371.975C258.873 370.253 259.42 368.065 259.42 365.41C259.42 364.38 259.283 363.302 259.01 362.175C258.752 361.049 258.31 360.107 257.682 359.351C257.054 358.579 256.202 358.217 255.123 358.265C254.061 358.313 253.257 357.951 252.71 357.179C252.163 356.406 251.648 355.529 251.165 354.548C252.082 354.162 253.024 353.872 253.989 353.679C254.954 353.486 255.848 353.389 256.668 353.389C258.197 353.389 259.573 353.743 260.796 354.451C262.019 355.143 263.065 356.068 263.934 357.227C264.803 358.386 265.462 359.681 265.913 361.113C266.379 362.529 266.613 363.961 266.613 365.41C266.613 368.032 266.074 370.414 264.996 372.554C263.917 374.678 262.381 376.368 260.385 377.623C258.406 378.878 256.057 379.506 253.337 379.506ZM283.236 379.409C280.967 379.409 278.851 378.902 276.888 377.889C274.925 376.859 273.332 375.37 272.109 373.423C270.902 371.46 270.299 369.078 270.299 366.278C270.299 364.01 270.701 362.054 271.506 360.413C272.326 358.756 273.388 357.396 274.692 356.334C275.995 355.272 277.395 354.483 278.892 353.968C280.404 353.454 281.852 353.196 283.236 353.196C285.795 353.196 288.04 353.751 289.971 354.862C291.918 355.972 293.438 357.517 294.533 359.496C295.627 361.459 296.174 363.72 296.174 366.278C296.174 368.322 295.804 370.157 295.064 371.782C294.323 373.407 293.334 374.791 292.095 375.933C290.856 377.06 289.464 377.921 287.919 378.516C286.39 379.111 284.829 379.409 283.236 379.409ZM283.236 374.485C284.491 374.485 285.545 374.115 286.398 373.375C287.251 372.635 287.895 371.645 288.329 370.406C288.764 369.167 288.981 367.791 288.981 366.278C288.981 364.782 288.764 363.414 288.329 362.175C287.895 360.936 287.251 359.955 286.398 359.23C285.545 358.49 284.491 358.12 283.236 358.12C281.981 358.12 280.919 358.49 280.05 359.23C279.197 359.955 278.546 360.936 278.095 362.175C277.661 363.414 277.443 364.782 277.443 366.278C277.443 368.692 277.966 370.663 279.012 372.192C280.074 373.721 281.482 374.485 283.236 374.485ZM316.273 378.782V361.065C316.273 360.26 316.104 359.6 315.766 359.086C315.444 358.571 314.873 358.313 314.052 358.313C313.747 358.313 313.449 358.353 313.159 358.434C312.87 358.514 312.492 358.571 312.025 358.603C311.253 358.651 310.601 358.329 310.07 357.637C309.555 356.929 309.064 356.189 308.597 355.417C310.19 354.564 311.59 353.985 312.797 353.679C314.004 353.357 315.163 353.196 316.273 353.196C317.383 353.196 318.453 353.478 319.483 354.041C320.513 354.604 321.35 355.465 321.994 356.624C322.653 357.766 322.983 359.214 322.983 360.968V378.782H316.273ZM300.68 378.782V359.906C300.68 359.005 300.616 358.048 300.487 357.034C300.375 356.02 300.182 354.95 299.908 353.824H305.508C306.28 354.693 306.795 355.553 307.053 356.406C307.31 357.259 307.439 358.168 307.439 359.134V378.782H300.68Z" fill="white"/>
<path d="M162.138 432.125V397.029H168.8L183.62 420.636L184.296 422.567L184.199 420.636V397.029H190.282V432.125H184.199L168.703 407.553L167.931 405.815L168.027 407.457V432.125H162.138ZM210.09 432.753C207.886 432.753 205.979 432.366 204.37 431.594C202.76 430.806 201.433 429.76 200.387 428.456C199.357 427.137 198.593 425.68 198.094 424.087C197.595 422.478 197.346 420.861 197.346 419.236C197.346 416.581 197.909 414.304 199.035 412.405C200.178 410.506 201.706 409.058 203.621 408.06C205.536 407.046 207.66 406.54 209.994 406.54C211.78 406.54 213.397 406.894 214.845 407.602C216.309 408.294 217.5 409.275 218.417 410.546C219.351 411.818 219.914 413.322 220.107 415.06C220.316 416.798 220.067 418.705 219.359 420.781H205.842C206.18 419.67 206.687 418.737 207.363 417.981C208.038 417.208 208.787 416.822 209.607 416.822H213.904C214.033 415.84 213.944 414.923 213.638 414.07C213.333 413.218 212.834 412.534 212.142 412.019C211.466 411.488 210.637 411.222 209.656 411.222C208.771 411.222 207.894 411.488 207.025 412.019C206.156 412.55 205.432 413.386 204.852 414.529C204.289 415.671 204.007 417.16 204.007 418.994C204.007 420.845 204.289 422.43 204.852 423.749C205.432 425.053 206.228 426.051 207.242 426.742C208.272 427.434 209.463 427.78 210.814 427.78C211.925 427.78 213.027 427.644 214.121 427.37C215.215 427.08 216.462 426.622 217.862 425.994L219.552 430.484C217.814 431.304 216.173 431.884 214.628 432.222C213.099 432.576 211.587 432.753 210.09 432.753ZM232.318 432.753C231.208 432.753 230.138 432.471 229.108 431.908C228.078 431.345 227.233 430.492 226.574 429.349C225.93 428.191 225.608 426.734 225.608 424.98V407.167H232.318V424.884C232.318 425.672 232.479 426.332 232.801 426.863C233.139 427.378 233.718 427.636 234.539 427.636C234.861 427.636 235.167 427.595 235.456 427.515C235.746 427.418 236.116 427.362 236.566 427.346C237.323 427.298 237.966 427.628 238.497 428.336C239.045 429.027 239.543 429.76 239.994 430.532C238.401 431.369 237.001 431.948 235.794 432.27C234.587 432.592 233.429 432.753 232.318 432.753ZM243.035 432.125C242.295 431.256 241.796 430.395 241.539 429.542C241.281 428.69 241.153 427.78 241.153 426.815V407.167H247.911V426.042C247.911 426.928 247.975 427.877 248.104 428.891C248.233 429.904 248.426 430.983 248.683 432.125H243.035ZM266.51 432.753C263.453 432.753 261.112 431.876 259.486 430.122C257.861 428.368 257.048 425.849 257.048 422.567V411.946H253.042V408.133L257.048 407.167V401.229L263.421 399.154V422.567C263.421 424.208 263.767 425.487 264.459 426.405C265.151 427.322 266.06 427.78 267.186 427.78C267.653 427.78 268.184 427.732 268.779 427.636C269.375 427.539 270.083 427.346 270.903 427.056L272.303 431.449C271.096 431.852 270.026 432.165 269.093 432.391C268.176 432.632 267.315 432.753 266.51 432.753ZM269.89 411.946C268.956 411.946 268.168 411.697 267.524 411.198C266.88 410.699 266.357 410.08 265.955 409.339C265.569 408.599 265.271 407.875 265.062 407.167H272.062V411.946H269.89ZM277.183 432.125V413.25C277.183 412.349 277.126 411.391 277.014 410.377C276.901 409.364 276.7 408.294 276.41 407.167H281.527C281.801 407.376 282.091 407.819 282.396 408.495C282.702 409.171 282.911 409.919 283.024 410.739L283.121 411.898L283.603 410.739C284.263 409.452 285.108 408.454 286.138 407.746C287.184 407.038 288.222 406.684 289.251 406.684C289.766 406.684 290.273 406.733 290.772 406.829C291.271 406.926 291.81 407.071 292.389 407.264L291.617 412.719C290.973 412.526 290.434 412.397 290 412.332C289.565 412.268 289.155 412.236 288.769 412.236C287.674 412.236 286.733 412.598 285.945 413.322C285.156 414.03 284.553 415.004 284.134 416.243C283.716 417.482 283.507 418.898 283.507 420.491V432.125H277.183ZM302.267 432.753C300.723 432.753 299.387 432.415 298.261 431.739C297.15 431.047 296.289 430.146 295.678 429.036C295.083 427.925 294.785 426.734 294.785 425.463C294.785 424.128 295.179 422.864 295.968 421.674C296.756 420.483 298.108 419.477 300.023 418.656C301.954 417.82 304.617 417.273 308.012 417.015C307.9 417.771 307.714 418.471 307.457 419.115C307.2 419.743 306.846 420.266 306.395 420.684C305.96 421.102 305.405 421.376 304.729 421.505C303.925 421.633 303.265 421.859 302.75 422.181C302.235 422.502 301.857 422.897 301.616 423.363C301.374 423.814 301.254 424.305 301.254 424.836C301.254 425.672 301.551 426.372 302.147 426.936C302.742 427.499 303.458 427.78 304.295 427.78C305.212 427.78 306.137 427.467 307.071 426.839C308.02 426.195 308.913 425.383 309.75 424.401V417.112C309.75 415.438 309.283 414.103 308.35 413.105C307.433 412.107 306.129 411.608 304.44 411.608C303.651 411.608 302.799 411.689 301.881 411.85C300.964 412.011 299.934 412.3 298.792 412.719L297.15 408.471C298.583 407.811 300.055 407.344 301.568 407.071C303.096 406.781 304.424 406.636 305.55 406.636C308.978 406.636 311.617 407.537 313.467 409.339C315.334 411.142 316.267 413.732 316.267 417.112V426.042C316.267 426.928 316.323 427.877 316.436 428.891C316.549 429.904 316.75 430.983 317.04 432.125H312.067C311.633 431.884 311.271 431.546 310.981 431.111C310.707 430.661 310.474 430.194 310.281 429.711L310.136 428.746L309.557 429.567C308.109 430.886 306.837 431.747 305.743 432.149C304.665 432.552 303.507 432.753 302.267 432.753ZM322.639 432.125V395.533H329.349V432.125H322.639Z" fill="white"/>
</svg>
