<svg width="53" height="44" viewBox="0 0 53 44" fill="none" xmlns="http://www.w3.org/2000/svg">
<path d="M31.2747 40.3935C26.5 43.3255 20.6347 44.4709 15.128 43.4869C9.01204 42.3789 3.43337 38.7122 3.8147e-05 33.5442C3.34404 31.1309 7.0987 28.8602 10.9614 27.4295C14.824 25.9815 19.276 25.6415 22.996 27.4122C27.0907 29.3602 30.5414 34.2602 32.4014 38.5695C28.6467 39.1242 24.8907 39.6242 21.1174 39.6602C16.7907 39.7135 12.392 39.1415 8.3507 37.4255C12.2667 39.4282 16.7014 40.3215 21.1 40.5895C24.4974 40.8055 27.8947 40.6442 31.2747 40.3935Z" fill="#2B4010"/>
<path d="M47.4395 23.2453C45.2582 17.8987 42.2715 12.7667 38.1409 8.76133C41.9862 13.0533 44.5249 18.2747 46.2955 23.6747C47.8329 28.3773 48.7809 33.2413 49.6742 38.14C43.5235 37.64 35.9955 35.4227 31.8462 31.1493C28.0915 27.2693 26.6435 21.6 26.8049 16.1827C26.9835 10.7813 28.2169 5.16666 29.8089 0C37.6582 2.092 44.5782 7.492 48.5129 14.608C52.0529 21.0453 53.1075 28.8067 51.4809 35.9773C50.3542 31.6853 49.1209 27.3933 47.4395 23.2453Z" fill="#2B4010"/>
</svg>
